<svg width="550.85703125px" height="129.44000549316405px" xmlns="http://www.w3.org/2000/svg" viewBox="-25.42851562499999 10.279997253417974 550.85703125 129.44000549316405" style="background: rgba(0, 0, 0, 0);" preserveAspectRatio="xMidYMid"><defs><linearGradient id="editing-outline-gradient" x1="-0.41354545764260087" x2="1.4135454576426008" y1="0.09326335692419985" y2="0.9067366430758002"><stop offset="0" stop-color="#ee4208"></stop><stop offset="1" stop-color="#4139ff"></stop></linearGradient><filter id="editing-outline" x="-100%" y="-100%" width="300%" height="300%"><feMorphology in="SourceGraphic" operator="dilate" radius="1" result="outline"></feMorphology><feComposite operator="out" in="outline" in2="SourceAlpha"></feComposite></filter></defs><g filter="url(#editing-outline)"><g transform="translate(56.98327952623367, 101.27000045776367)"><path d="M2.43-3.46L2.43-3.46L6.72-3.07L6.72-3.07Q8.13-3.07 8.86-3.36L8.86-3.36L8.86-3.36Q9.60-3.65 9.95-3.52L9.95-3.52L9.95-3.52Q10.30-3.39 9.79-3.04L9.79-3.04L9.79-3.04Q9.28-2.69 8.10-2.50L8.10-2.50L8.10-2.50Q6.91-2.30 6.66-2.18L6.66-2.18L6.66-2.18Q7.68-1.79 8.90-1.09L8.90-1.09L12.29 1.02L12.29 1.02Q13.82-2.56 14.46-4.61L14.46-4.61L14.46-4.61Q14.08-4.42 13.44-4.32L13.44-4.32L13.44-4.32Q12.80-4.22 12.80-4.67L12.80-4.67L12.80-4.67Q12.80-5.12 13.57-5.38L13.57-5.38L14.98-5.76L14.98-5.76Q16-8.70 17.25-12.90L17.25-12.90L17.25-12.90Q18.50-17.09 18.50-17.15L18.50-17.15L18.50-17.15Q22.34-29.44 25.15-32.64L25.15-32.64L25.15-32.64Q27.97-35.84 30.34-36.80L30.34-36.80L30.34-36.80Q32.70-37.76 33.92-37.76L33.92-37.76L33.92-37.76Q37.31-37.76 39.30-35.07L39.30-35.07L39.30-35.07Q40.64-33.22 40.64-30.40L40.64-30.40L40.64-30.40Q40.64-25.09 37.02-19.84L37.02-19.84L37.02-19.84Q33.41-14.59 28.29-10.98L28.29-10.98L28.29-10.98Q23.17-7.36 17.66-5.44L17.66-5.44L17.66-5.44Q15.74-0.90 14.02 2.05L14.02 2.05L14.02 2.05Q23.81 8.32 27.90 9.66L27.90 9.66L27.90 9.66Q32.64 11.26 36.93 11.26L36.93 11.26L36.93 11.26Q41.60 11.26 44.67 8.70L44.67 8.70L44.67 8.70Q46.27 7.42 46.27 6.02L46.27 6.02L46.27 6.02Q46.27 4.61 45.73 3.52L45.73 3.52L45.73 3.52Q45.18 2.43 45.82 2.34L45.82 2.34L45.82 2.34Q46.46 2.24 46.85 3.01L46.85 3.01L46.85 3.01Q47.81 5.12 47.81 7.36L47.81 7.36L47.81 7.36Q47.81 7.74 47.81 8.13L47.81 8.13L47.81 8.13Q47.74 10.56 45.57 12.42L45.57 12.42L45.57 12.42Q43.01 14.59 37.70 14.59L37.70 14.59L37.70 14.59Q34.11 14.59 31.39 13.63L31.39 13.63L31.39 13.63Q28.67 12.67 27.10 12.06L27.10 12.06L27.10 12.06Q25.54 11.46 23.20 9.95L23.20 9.95L23.20 9.95Q20.86 8.45 19.90 7.81L19.90 7.81L19.90 7.81Q17.98 6.53 13.38 3.07L13.38 3.07L13.38 3.07Q10.05 8.83 7.49 8.83L7.49 8.83L7.49 8.83Q6.85 8.83 6.72 8.61L6.72 8.61L6.72 8.61Q6.59 8.38 6.75 8.19L6.75 8.19L6.75 8.19Q6.91 8 7.10 8L7.10 8L7.10 8Q9.22 7.81 11.84 2.05L11.84 2.05L11.84 2.05Q8.26-0.32 5.82-1.15L5.82-1.15L5.82-1.15Q3.65-0.26 2.82-0.26L2.82-0.26L2.82-0.26Q1.98-0.26 1.73-0.32L1.73-0.32L1.73-0.32Q0.64-0.70 0.64-1.66L0.64-1.66L0.64-1.66Q0.64-3.01 2.30-3.46L2.30-3.46L2.30-3.46Q2.30-3.46 2.43-3.46ZM38.02-31.62L38.02-31.62L38.02-31.62Q38.02-36.48 34.37-36.48L34.37-36.48L34.37-36.48Q31.10-36.48 28.80-33.15L28.80-33.15L28.80-33.15Q26.24-29.57 25.09-26.46L25.09-26.46L25.09-26.46Q23.94-23.36 23.42-21.89L23.42-21.89L23.42-21.89Q22.14-18.30 21.44-15.36L21.44-15.36L21.44-15.36Q19.33-9.47 18.37-7.23L18.37-7.23L18.37-7.23Q25.73-10.56 31.07-16.26L31.07-16.26L31.07-16.26Q36.42-21.95 37.76-29.12L37.76-29.12L37.76-29.12Q38.02-30.46 38.02-31.62ZM38.66 0.70L38.66 0.70L38.66 0.70Q37.63 0.70 36.45 0.10L36.45 0.10L36.45 0.10Q35.26-0.51 34.43-1.63L34.43-1.63L34.43-1.63Q33.60-2.75 33.60-4.03L33.60-4.03L33.60-4.03Q33.60-5.31 34.18-6.46L34.18-6.46L34.18-6.46Q35.46-9.15 38.30-11.68L38.30-11.68L38.30-11.68Q41.15-14.21 44.22-16L44.22-16L44.22-16Q47.30-17.79 49.09-18.24L49.09-18.24L49.09-18.24Q50.88-18.69 52.58-18.69L52.58-18.69L52.58-18.69Q54.27-18.69 55.49-17.82L55.49-17.82L55.49-17.82Q56.70-16.96 56.70-16L56.70-16L56.70-16Q56.70-15.68 56.64-15.62L56.64-15.62L56.64-15.62Q56.58-15.55 56.32-15.68L56.32-15.68L56.32-15.68Q55.55-16.90 53.15-16.90L53.15-16.90L53.15-16.90Q50.75-16.90 47.71-15.33L47.71-15.33L47.71-15.33Q44.67-13.76 41.98-11.39L41.98-11.39L41.98-11.39Q39.74-9.28 38.05-6.62L38.05-6.62L38.05-6.62Q36.35-3.97 36.35-2.75L36.35-2.75L36.35-2.75Q36.35-0.38 37.70-0.38L37.70-0.38L37.70-0.38Q39.04-0.38 41.79-2.56L41.79-2.56L41.79-2.56Q46.34-6.40 48-8.19L48-8.19L48-8.19Q53.89-14.53 54.34-14.53L54.34-14.53L54.34-14.53Q55.10-14.53 56.19-14.08L56.19-14.08L56.19-14.08Q57.28-13.63 56.90-12.99L56.90-12.99L56.90-12.99Q53.63-8.38 53.06-3.71L53.06-3.71L53.06-3.71Q52.99-3.14 52.99-2.24L52.99-2.24L52.99-2.24Q52.99-1.34 53.50-0.77L53.50-0.77L53.50-0.77Q54.46 0.26 56.13-0.64L56.13-0.64L56.13-0.64Q57.79-1.54 60.77-4.22L60.77-4.22L60.77-4.22Q63.74-6.91 65.54-9.47L65.54-9.47L65.54-9.47Q65.79-9.79 66.11-9.63L66.11-9.63L66.11-9.63Q66.43-9.47 66.43-9.34L66.43-9.34L66.43-9.34Q66.43-8.38 63.39-5.15L63.39-5.15L63.39-5.15Q60.35-1.92 58.75-0.77L58.75-0.77L58.75-0.77Q55.74 1.47 53.18 1.47L53.18 1.47L53.18 1.47Q50.75 1.47 49.92-0.96L49.92-0.96L49.92-0.96Q49.73-1.73 49.73-2.69L49.73-2.69L49.73-2.69Q49.73-5.57 50.94-8.77L50.94-8.77L50.94-8.77Q50.69-8.64 48.58-6.21L48.58-6.21L48.58-6.21Q46.46-3.78 43.68-1.54L43.68-1.54L43.68-1.54Q40.90 0.70 38.66 0.70ZM67.65 0.51L67.65 0.51L67.65 0.51Q65.34 1.66 64.70 1.66L64.70 1.66L64.70 1.66Q64.06 1.66 64.06 1.47L64.06 1.47L64.06 1.47Q64.06 1.28 64.16 1.06L64.16 1.06L64.16 1.06Q64.26 0.83 65.06-1.34L65.06-1.34L65.06-1.34Q65.86-3.52 67.07-6.85L67.07-6.85L67.07-6.85Q68.29-10.18 69.18-12.42L69.18-12.42L69.18-12.42Q67.71-10.82 65.73-8L65.73-8L65.73-8Q65.41-7.55 64.86-7.74L64.86-7.74L64.86-7.74Q64.32-7.94 65.22-9.09L65.22-9.09L65.22-9.09Q67.33-11.65 70.53-16.45L70.53-16.45L70.53-16.45Q69.57-16.96 69.57-17.44L69.57-17.44L69.57-17.44Q69.57-17.92 69.70-18.18L69.70-18.18L69.70-18.18Q70.02-18.94 70.85-18.50L70.85-18.50L70.85-18.50Q71.23-18.37 71.36-18.37L71.36-18.37L71.36-18.37Q74.18-25.79 78.40-31.62L78.40-31.62L78.40-31.62Q80.70-34.88 83.20-36.38L83.20-36.38L83.20-36.38Q85.70-37.89 87.87-37.89L87.87-37.89L87.87-37.89Q89.41-37.89 90.82-37.15L90.82-37.15L90.82-37.15Q92.22-36.42 92.22-34.75L92.22-34.75L92.22-34.75Q92.22-31.55 86.72-25.47L86.72-25.47L86.72-25.47Q83.78-22.34 80.13-19.71L80.13-19.71L80.13-19.71Q76.48-17.09 73.66-15.87L73.66-15.87L73.66-15.87Q71.17-10.37 69.25-4.35L69.25-4.35L73.41-9.79L73.41-9.79Q73.34-10.37 73.34-11.01L73.34-11.01L73.34-11.01Q73.34-12.93 74.18-13.38L74.18-13.38L74.18-13.38Q74.62-13.57 74.75-12.61L74.75-12.61L75.01-11.71L75.01-11.71Q79.94-17.47 82.11-18.50L82.11-18.50L82.11-18.50Q83.14-19.01 83.97-19.01L83.97-19.01L83.97-19.01Q84.80-19.01 85.44-18.56L85.44-18.56L85.44-18.56Q86.08-18.11 86.08-17.60L86.08-17.60L86.08-17.60Q86.08-16.70 84.61-16L84.61-16L84.61-16Q77.57-12.61 75.33-10.24L75.33-10.24L75.33-10.24Q76.86-4.86 78.34-1.79L78.34-1.79L78.34-1.79Q79.81 1.28 82.98 5.12L82.98 5.12L82.98 5.12Q86.14 8.96 88.77 8.96L88.77 8.96L88.77 8.96Q90.94 8.96 90.56 7.04L90.56 7.04L90.56 7.04Q90.30 5.31 89.50 4.06L89.50 4.06L89.50 4.06Q88.70 2.82 89.34 2.82L89.34 2.82L89.34 2.82Q89.92 2.88 90.56 3.39L90.56 3.39L90.56 3.39Q90.94 3.84 91.46 4.96L91.46 4.96L91.46 4.96Q91.97 6.08 91.97 6.85L91.97 6.85L91.97 6.85Q91.90 8.64 90.24 9.66L90.24 9.66L90.24 9.66Q88.58 10.69 87.04 10.69L87.04 10.69L87.04 10.69Q84.03 10.69 81.15 7.71L81.15 7.71L81.15 7.71Q78.27 4.74 76.35 0.51L76.35 0.51L76.35 0.51Q74.43-3.71 73.66-8.13L73.66-8.13L73.66-8.13Q72.51-6.53 71.10-4.29L71.10-4.29L71.10-4.29Q68.22 0.13 67.65 0.51ZM88.58-31.10L88.58-31.10L88.58-31.10Q90.30-33.98 90.30-35.14L90.30-35.14L90.30-35.14Q90.30-36.29 89.34-36.29L89.34-36.29L89.34-36.29Q88.38-36.29 86.91-35.14L86.91-35.14L86.91-35.14Q82.82-32 80-28L80-28L80-28Q77.18-24 74.43-18.05L74.43-18.05L74.43-18.05Q80.38-20.80 85.25-26.37L85.25-26.37L85.25-26.37Q86.85-28.22 88.58-31.10ZM116.80-8.96L116.80-8.96Q115.84-7.23 113.34-4.54L113.34-4.54L113.34-4.54Q110.85-1.86 108.86-0.38L108.86-0.38L108.86-0.38Q106.30 1.47 103.30 1.47L103.30 1.47L103.30 1.47Q102.72 1.47 101.79 0.93L101.79 0.93L101.79 0.93Q100.86 0.38 100.54-0.64L100.54-0.64L100.54-0.64Q100.22-1.66 100.22-2.62L100.22-2.62L100.22-2.62Q100.22-5.95 101.50-9.22L101.50-9.22L101.50-9.22Q101.31-9.09 99.74-6.50L99.74-6.50L99.74-6.50Q98.18-3.90 95.90-1.60L95.90-1.60L95.90-1.60Q93.63 0.70 91.33 0.70L91.33 0.70L91.33 0.70Q90.24 0.70 88.83 0.13L88.83 0.13L88.83 0.13Q86.27-1.02 86.27-4.10L86.27-4.10L86.27-4.10Q86.27-7.87 88.86-11.87L88.86-11.87L88.86-11.87Q91.46-15.87 92.16-16.13L92.16-16.13L92.16-16.13Q93.12-16.38 93.98-16.38L93.98-16.38L93.98-16.38Q94.85-16.38 95.74-16.03L95.74-16.03L95.74-16.03Q96.64-15.68 95.49-14.85L95.49-14.85L95.49-14.85Q91.07-10.82 89.22-5.89L89.22-5.89L89.22-5.89Q88.51-3.97 88.51-2.66L88.51-2.66L88.51-2.66Q88.51-1.34 89.18-0.96L89.18-0.96L89.18-0.96Q89.86-0.58 90.50-0.58L90.50-0.58L90.50-0.58Q92.03-0.58 94.69-2.72L94.69-2.72L94.69-2.72Q97.34-4.86 102.02-11.65L102.02-11.65L102.02-11.65Q102.66-12.61 104.26-15.39L104.26-15.39L104.26-15.39Q105.86-18.18 106.18-18.69L106.18-18.69L106.18-18.69Q107.20-18.69 108.58-18.21L108.58-18.21L108.58-18.21Q109.95-17.73 109.50-16.96L109.50-16.96L109.50-16.96Q106.43-11.84 105.18-9.41L105.18-9.41L105.18-9.41Q103.94-6.98 103.49-3.71L103.49-3.71L103.49-3.71Q103.42-3.14 103.42-2.24L103.42-2.24L103.42-2.24Q103.42-1.34 103.94-0.77L103.94-0.77L103.94-0.77Q104.90 0.26 106.59-0.67L106.59-0.67L106.59-0.67Q108.29-1.60 111.23-4.26L111.23-4.26L111.23-4.26Q114.18-6.91 115.97-9.47L115.97-9.47L115.97-9.47Q116.22-9.79 116.58-9.63L116.58-9.63L116.58-9.63Q116.93-9.47 116.93-9.31L116.93-9.31L116.93-9.31Q116.93-9.15 116.80-8.96L116.80-8.96ZM115.84 0.64L115.84 0.64L115.84 0.64Q115.01 1.60 115.49 2.18L115.49 2.18L115.49 2.18Q115.97 2.75 116.58 2.75L116.58 2.75L116.58 2.75Q117.18 2.75 117.82 2.56L117.82 2.56L117.82 2.56Q120.58 1.73 123.17-0.74L123.17-0.74L123.17-0.74Q125.76-3.20 125.76-5.76L125.76-5.76L125.76-5.76Q125.76-7.17 122.62-8.83L122.62-8.83L122.62-8.83Q121.15-9.60 120.96-9.73L120.96-9.73L120.96-9.73Q119.23-10.88 118.78-12.03L118.78-12.03L118.78-12.03Q117.89-10.50 115.90-7.62L115.90-7.62L115.90-7.62Q115.46-7.10 115.07-7.39L115.07-7.39L115.07-7.39Q114.69-7.68 115.01-8.19L115.01-8.19L115.01-8.19Q117.63-11.78 118.46-14.21L118.46-14.21L118.46-14.21Q118.91-17.73 123.58-20.54L123.58-20.54L123.58-20.54Q128.26-23.36 132.10-23.36L132.10-23.36L132.10-23.36Q134.53-23.36 135.52-22.50L135.52-22.50L135.52-22.50Q136.51-21.63 136.51-20.80L136.51-20.80L136.51-20.80Q136.51-19.97 136.03-18.88L136.03-18.88L136.03-18.88Q135.55-17.79 134.08-16.83L134.08-16.83L134.08-16.83Q133.70-16.58 133.44-16.96L133.44-16.96L133.44-16.96Q133.31-17.34 133.98-18.02L133.98-18.02L133.98-18.02Q134.66-18.69 134.85-19.84L134.85-19.84L134.85-19.84Q135.04-20.99 133.82-21.25L133.82-21.25L133.82-21.25Q133.63-21.25 133.44-21.25L133.44-21.25L133.44-21.25Q130.94-21.25 127.20-19.39L127.20-19.39L127.20-19.39Q123.46-17.54 121.34-14.59L121.34-14.59L121.34-14.59Q120.51-13.50 120.51-12.38L120.51-12.38L120.51-12.38Q120.51-11.26 122.05-10.37L122.05-10.37L122.05-10.37Q122.69-9.98 124.22-9.15L124.22-9.15L124.22-9.15Q125.76-8.32 126.40-7.94L126.40-7.94L126.40-7.94Q127.04-7.55 127.94-6.72L127.94-6.72L127.94-6.72Q128.83-5.89 128.90-5.18L128.90-5.18L128.90-5.18Q129.22-3.26 127.10-0.96L127.10-0.96L127.10-0.96Q124.10 2.37 118.14 3.71L118.14 3.71L118.14 3.71Q116.80 4.03 115.42 4.03L115.42 4.03L115.42 4.03Q114.05 4.03 113.54 3.01L113.54 3.01L113.54 3.01Q113.34 2.75 113.34 2.21L113.34 2.21L113.34 2.21Q113.34 1.66 114.37 0.45L114.37 0.45L114.37 0.45Q115.33-0.51 117.44-1.41L117.44-1.41L117.44-1.41Q117.63-1.47 117.76-1.34L117.76-1.34L117.76-1.34Q117.89-1.22 117.82-1.02L117.82-1.02L117.82-1.02Q117.76-0.83 117.15-0.58L117.15-0.58L117.15-0.58Q116.54-0.32 115.84 0.64ZM143.55-17.86L144.38-17.92L144.38-17.92Q149.31-18.37 150.37-18.37L150.37-18.37L150.37-18.37Q151.42-18.37 151.42-18.05L151.42-18.05L151.42-18.05Q151.42-17.66 149.92-17.25L149.92-17.25L149.92-17.25Q148.42-16.83 142.59-16.19L142.59-16.19L142.59-16.19Q142.27-15.62 141.82-14.85L141.82-14.85L141.82-14.85Q140.86-13.31 140.80-12.99L140.80-12.99L140.80-12.99Q137.15-5.70 136.96-3.71L136.96-3.71L136.96-3.71Q136.90-3.14 136.90-2.24L136.90-2.24L136.90-2.24Q136.90-1.34 137.41-0.77L137.41-0.77L137.41-0.77Q138.30 0.26 139.97-0.64L139.97-0.64L139.97-0.64Q141.63-1.54 144.61-4.22L144.61-4.22L144.61-4.22Q147.58-6.91 149.44-9.47L149.44-9.47L149.44-9.47Q149.70-9.79 150.08-9.60L150.08-9.60L150.08-9.60Q151.04-9.15 146.75-4.54L146.75-4.54L146.75-4.54Q142.66-0.13 139.90 0.90L139.90 0.90L139.90 0.90Q138.30 1.47 137.22 1.47L137.22 1.47L137.22 1.47Q134.66 1.47 133.82-0.96L133.82-0.96L133.82-0.96Q133.70-1.41 133.70-2.05L133.70-2.05L133.70-2.05Q133.70-4.29 135.74-8.83L135.74-8.83L135.74-8.83Q135.42-8.13 133.25-5.63L133.25-5.63L133.25-5.63Q132.67-4.99 132.35-5.63L132.35-5.63L132.35-5.63Q132.29-5.76 132.29-5.98L132.29-5.98L132.29-5.98Q132.29-6.21 132.54-6.53L132.54-6.53L132.54-6.53Q135.68-10.43 137.47-13.12L137.47-13.12L137.47-13.12Q137.47-13.18 138.88-15.81L138.88-15.81L138.88-15.81Q138.24-15.68 137.57-15.68L137.57-15.68L137.57-15.68Q136.90-15.68 136.58-16.10L136.58-16.10L136.58-16.10Q136.26-16.51 136.51-17.09L136.51-17.09L136.51-17.09Q136.96-18.11 139.90-18.24L139.90-18.24L139.90-18.24Q139.97-18.37 140.16-18.37L140.16-18.37L143.36-24.32L143.36-24.32Q143.62-24.83 143.94-25.38L143.94-25.38L143.94-25.38Q144.26-25.92 144.42-26.21L144.42-26.21L144.42-26.21Q144.58-26.50 144.77-26.82L144.77-26.82L144.77-26.82Q144.96-27.14 145.09-27.26L145.09-27.26L145.09-27.26Q145.22-27.39 145.34-27.52L145.34-27.52L145.34-27.52Q145.60-27.90 146.85-27.90L146.85-27.90L146.85-27.90Q148.10-27.90 148.54-27.20L148.54-27.20L148.54-27.20Q148.74-26.94 148.74-26.34L148.74-26.34L148.74-26.34Q148.74-25.73 148.29-24.99L148.29-24.99L148.29-24.99Q147.84-24.26 147.33-23.94L147.33-23.94L147.33-23.94Q146.82-23.62 146.62-23.23L146.62-23.23L143.55-17.86ZM151.81 0.70L151.81 0.70L151.81 0.70Q150.78 0.70 149.60 0.10L149.60 0.10L149.60 0.10Q148.42-0.51 147.58-1.63L147.58-1.63L147.58-1.63Q146.75-2.75 146.75-4.03L146.75-4.03L146.75-4.03Q146.75-5.31 147.33-6.46L147.33-6.46L147.33-6.46Q148.61-9.15 151.46-11.68L151.46-11.68L151.46-11.68Q154.30-14.21 157.38-16L157.38-16L157.38-16Q160.45-17.79 162.24-18.24L162.24-18.24L162.24-18.24Q164.03-18.69 165.73-18.69L165.73-18.69L165.73-18.69Q167.42-18.69 168.64-17.82L168.64-17.82L168.64-17.82Q169.86-16.96 169.86-16L169.86-16L169.86-16Q169.86-15.68 169.79-15.62L169.79-15.62L169.79-15.62Q169.73-15.55 169.47-15.68L169.47-15.68L169.47-15.68Q168.70-16.90 166.30-16.90L166.30-16.90L166.30-16.90Q163.90-16.90 160.86-15.33L160.86-15.33L160.86-15.33Q157.82-13.76 155.14-11.39L155.14-11.39L155.14-11.39Q152.90-9.28 151.20-6.62L151.20-6.62L151.20-6.62Q149.50-3.97 149.50-2.75L149.50-2.75L149.50-2.75Q149.50-0.38 150.85-0.38L150.85-0.38L150.85-0.38Q152.19-0.38 154.94-2.56L154.94-2.56L154.94-2.56Q159.49-6.40 161.15-8.19L161.15-8.19L161.15-8.19Q167.04-14.53 167.49-14.53L167.49-14.53L167.49-14.53Q168.26-14.53 169.34-14.08L169.34-14.08L169.34-14.08Q170.43-13.63 170.05-12.99L170.05-12.99L170.05-12.99Q166.78-8.38 166.21-3.71L166.21-3.71L166.21-3.71Q166.14-3.14 166.14-2.24L166.14-2.24L166.14-2.24Q166.14-1.34 166.66-0.77L166.66-0.77L166.66-0.77Q167.62 0.26 169.28-0.64L169.28-0.64L169.28-0.64Q170.94-1.54 173.92-4.22L173.92-4.22L173.92-4.22Q176.90-6.91 178.69-9.47L178.69-9.47L178.69-9.47Q178.94-9.79 179.26-9.63L179.26-9.63L179.26-9.63Q179.58-9.47 179.58-9.34L179.58-9.34L179.58-9.34Q179.58-8.38 176.54-5.15L176.54-5.15L176.54-5.15Q173.50-1.92 171.90-0.77L171.90-0.77L171.90-0.77Q168.90 1.47 166.34 1.47L166.34 1.47L166.34 1.47Q163.90 1.47 163.07-0.96L163.07-0.96L163.07-0.96Q162.88-1.73 162.88-2.69L162.88-2.69L162.88-2.69Q162.88-5.57 164.10-8.77L164.10-8.77L164.10-8.77Q163.84-8.64 161.73-6.21L161.73-6.21L161.73-6.21Q159.62-3.78 156.83-1.54L156.83-1.54L156.83-1.54Q154.05 0.70 151.81 0.70ZM241.47-27.71L241.47-27.71L241.47-27.71Q239.94-27.71 237.38-29.95L237.38-29.95L237.38-29.95Q237.44-28.99 237.44-27.97L237.44-27.97L237.44-27.97Q237.44-22.85 235.39-15.49L235.39-15.49L235.39-15.49Q233.34-8.13 229.22-1.92L229.22-1.92L229.22-1.92Q225.09 4.29 220.80 4.29L220.80 4.29L220.80 4.29Q217.22 4.29 214.62 1.47L214.62 1.47L214.62 1.47Q212.03-1.34 210.69-5.89L210.69-5.89L210.69-5.89Q208.26-14.53 208.26-24.51L208.26-24.51L208.26-24.51Q203.84-12.93 199.81-5.44L199.81-5.44L199.81-5.44Q193.02 6.59 186.75 8.51L186.75 8.51L186.75 8.51Q185.15 9.02 183.87 9.02L183.87 9.02L183.87 9.02Q182.59 9.02 181.63 8.77L181.63 8.77L181.63 8.77Q179.01 7.87 178.37 5.18L178.37 5.18L178.37 5.18Q178.30 4.86 178.30 4.61L178.30 4.61L178.30 4.61Q178.30 4.35 178.37 3.97L178.37 3.97L178.37 3.97Q178.43 3.58 178.75 3.74L178.75 3.74L178.75 3.74Q179.07 3.90 179.39 4.93L179.39 4.93L179.39 4.93Q179.84 6.66 181.63 7.10L181.63 7.10L181.63 7.10Q182.72 7.42 183.74 7.42L183.74 7.42L183.74 7.42Q184.77 7.42 185.73 7.10L185.73 7.10L185.73 7.10Q191.87 5.18 197.89-5.76L197.89-5.76L197.89-5.76Q202.05-13.76 206.34-28.29L206.34-28.29L206.34-28.29Q202.82-25.09 198.02-24.77L198.02-24.77L198.02-24.77Q197.38-24.70 197.34-25.22L197.34-25.22L197.34-25.22Q197.31-25.73 198.08-25.86L198.08-25.86L198.08-25.86Q200.83-26.11 203.78-28.74L203.78-28.74L203.78-28.74Q206.72-31.36 208.19-34.75L208.19-34.75L208.19-34.75Q208.45-35.58 210.43-35.55L210.43-35.55L210.43-35.55Q212.42-35.52 212.35-34.75L212.35-34.75L212.35-34.75Q212.10-34.05 211.78-31.36L211.78-31.36L211.78-31.36Q211.46-28.67 211.46-26.05L211.46-26.05L211.46-26.05Q211.46-14.78 214.98-4.86L214.98-4.86L214.98-4.86Q217.47 2.11 221.31 2.11L221.31 2.11L221.31 2.11Q225.15 2.11 228.48-4.61L228.48-4.61L228.48-4.61Q231.81-11.33 233.06-17.92L233.06-17.92L233.06-17.92Q234.30-24.51 234.30-27.17L234.30-27.17L234.30-27.17Q234.30-29.82 234.05-31.14L234.05-31.14L234.05-31.14Q233.79-32.45 232.32-36.74L232.32-36.74L232.32-36.74Q232.26-36.93 232.77-37.41L232.77-37.41L232.77-37.41Q233.28-37.89 233.54-37.95L233.54-37.95L233.54-37.95Q234.75-37.95 235.81-36.48L235.81-36.48L235.81-36.48Q236.86-35.01 237.95-33.02L237.95-33.02L237.95-33.02Q239.81-29.44 241.41-29.44L241.41-29.44L242.18-29.63L242.18-29.63Q242.75-29.63 242.88-28.99L242.88-28.99L242.88-28.99Q242.88-28.48 242.43-28.13L242.43-28.13L242.43-28.13Q241.98-27.78 241.47-27.71ZM245.31 0.70L245.31 0.70L245.31 0.70Q244.29 0.70 243.10 0.10L243.10 0.10L243.10 0.10Q241.92-0.51 241.09-1.63L241.09-1.63L241.09-1.63Q240.26-2.75 240.26-4.03L240.26-4.03L240.26-4.03Q240.26-5.31 240.83-6.46L240.83-6.46L240.83-6.46Q242.11-9.15 244.96-11.68L244.96-11.68L244.96-11.68Q247.81-14.21 250.88-16L250.88-16L250.88-16Q253.95-17.79 255.74-18.24L255.74-18.24L255.74-18.24Q257.54-18.69 259.23-18.69L259.23-18.69L259.23-18.69Q260.93-18.69 262.14-17.82L262.14-17.82L262.14-17.82Q263.36-16.96 263.36-16L263.36-16L263.36-16Q263.36-15.68 263.30-15.62L263.30-15.62L263.30-15.62Q263.23-15.55 262.98-15.68L262.98-15.68L262.98-15.68Q262.21-16.90 259.81-16.90L259.81-16.90L259.81-16.90Q257.41-16.90 254.37-15.33L254.37-15.33L254.37-15.33Q251.33-13.76 248.64-11.39L248.64-11.39L248.64-11.39Q246.40-9.28 244.70-6.62L244.70-6.62L244.70-6.62Q243.01-3.97 243.01-2.75L243.01-2.75L243.01-2.75Q243.01-0.38 244.35-0.38L244.35-0.38L244.35-0.38Q245.70-0.38 248.45-2.56L248.45-2.56L248.45-2.56Q252.99-6.40 254.66-8.19L254.66-8.19L254.66-8.19Q260.54-14.53 260.99-14.53L260.99-14.53L260.99-14.53Q261.76-14.53 262.85-14.08L262.85-14.08L262.85-14.08Q263.94-13.63 263.55-12.99L263.55-12.99L263.55-12.99Q260.29-8.38 259.71-3.71L259.71-3.71L259.71-3.71Q259.65-3.14 259.65-2.24L259.65-2.24L259.65-2.24Q259.65-1.34 260.16-0.77L260.16-0.77L260.16-0.77Q261.12 0.26 262.78-0.64L262.78-0.64L262.78-0.64Q264.45-1.54 267.42-4.22L267.42-4.22L267.42-4.22Q270.40-6.91 272.19-9.47L272.19-9.47L272.19-9.47Q272.45-9.79 272.77-9.63L272.77-9.63L272.77-9.63Q273.09-9.47 273.09-9.34L273.09-9.34L273.09-9.34Q273.09-8.38 270.05-5.15L270.05-5.15L270.05-5.15Q267.01-1.92 265.41-0.77L265.41-0.77L265.41-0.77Q262.40 1.47 259.84 1.47L259.84 1.47L259.84 1.47Q257.41 1.47 256.58-0.96L256.58-0.96L256.58-0.96Q256.38-1.73 256.38-2.69L256.38-2.69L256.38-2.69Q256.38-5.57 257.60-8.77L257.60-8.77L257.60-8.77Q257.34-8.64 255.23-6.21L255.23-6.21L255.23-6.21Q253.12-3.78 250.34-1.54L250.34-1.54L250.34-1.54Q247.55 0.70 245.31 0.70ZM280.77-17.86L281.60-17.92L281.60-17.92Q286.53-18.37 287.58-18.37L287.58-18.37L287.58-18.37Q288.64-18.37 288.64-18.05L288.64-18.05L288.64-18.05Q288.64-17.66 287.14-17.25L287.14-17.25L287.14-17.25Q285.63-16.83 279.81-16.19L279.81-16.19L279.81-16.19Q279.49-15.62 279.04-14.85L279.04-14.85L279.04-14.85Q278.08-13.31 278.02-12.99L278.02-12.99L278.02-12.99Q274.37-5.70 274.18-3.71L274.18-3.71L274.18-3.71Q274.11-3.14 274.11-2.24L274.11-2.24L274.11-2.24Q274.11-1.34 274.62-0.77L274.62-0.77L274.62-0.77Q275.52 0.26 277.18-0.64L277.18-0.64L277.18-0.64Q278.85-1.54 281.82-4.22L281.82-4.22L281.82-4.22Q284.80-6.91 286.66-9.47L286.66-9.47L286.66-9.47Q286.91-9.79 287.30-9.60L287.30-9.60L287.30-9.60Q288.26-9.15 283.97-4.54L283.97-4.54L283.97-4.54Q279.87-0.13 277.12 0.90L277.12 0.90L277.12 0.90Q275.52 1.47 274.43 1.47L274.43 1.47L274.43 1.47Q271.87 1.47 271.04-0.96L271.04-0.96L271.04-0.96Q270.91-1.41 270.91-2.05L270.91-2.05L270.91-2.05Q270.91-4.29 272.96-8.83L272.96-8.83L272.96-8.83Q272.64-8.13 270.46-5.63L270.46-5.63L270.46-5.63Q269.89-4.99 269.57-5.63L269.57-5.63L269.57-5.63Q269.50-5.76 269.50-5.98L269.50-5.98L269.50-5.98Q269.50-6.21 269.76-6.53L269.76-6.53L269.76-6.53Q272.90-10.43 274.69-13.12L274.69-13.12L274.69-13.12Q274.69-13.18 276.10-15.81L276.10-15.81L276.10-15.81Q275.46-15.68 274.78-15.68L274.78-15.68L274.78-15.68Q274.11-15.68 273.79-16.10L273.79-16.10L273.79-16.10Q273.47-16.51 273.73-17.09L273.73-17.09L273.73-17.09Q274.18-18.11 277.12-18.24L277.12-18.24L277.12-18.24Q277.18-18.37 277.38-18.37L277.38-18.37L280.58-24.32L280.58-24.32Q280.83-24.83 281.15-25.38L281.15-25.38L281.15-25.38Q281.47-25.92 281.63-26.21L281.63-26.21L281.63-26.21Q281.79-26.50 281.98-26.82L281.98-26.82L281.98-26.82Q282.18-27.14 282.30-27.26L282.30-27.26L282.30-27.26Q282.43-27.39 282.56-27.52L282.56-27.52L282.56-27.52Q282.82-27.90 284.06-27.90L284.06-27.90L284.06-27.90Q285.31-27.90 285.76-27.20L285.76-27.20L285.76-27.20Q285.95-26.94 285.95-26.34L285.95-26.34L285.95-26.34Q285.95-25.73 285.50-24.99L285.50-24.99L285.50-24.99Q285.06-24.26 284.54-23.94L284.54-23.94L284.54-23.94Q284.03-23.62 283.84-23.23L283.84-23.23L280.77-17.86ZM289.02 0.70L289.02 0.70L289.02 0.70Q288 0.70 286.82 0.10L286.82 0.10L286.82 0.10Q285.63-0.51 284.80-1.63L284.80-1.63L284.80-1.63Q283.97-2.75 283.97-4.03L283.97-4.03L283.97-4.03Q283.97-5.31 284.54-6.46L284.54-6.46L284.54-6.46Q285.82-9.15 288.67-11.68L288.67-11.68L288.67-11.68Q291.52-14.21 294.59-16L294.59-16L294.59-16Q297.66-17.79 299.46-18.24L299.46-18.24L299.46-18.24Q301.25-18.69 302.94-18.69L302.94-18.69L302.94-18.69Q304.64-18.69 305.86-17.82L305.86-17.82L305.86-17.82Q307.07-16.96 307.07-16L307.07-16L307.07-16Q307.07-15.68 307.01-15.62L307.01-15.62L307.01-15.62Q306.94-15.55 306.69-15.68L306.69-15.68L306.69-15.68Q305.92-16.90 303.52-16.90L303.52-16.90L303.52-16.90Q301.12-16.90 298.08-15.33L298.08-15.33L298.08-15.33Q295.04-13.76 292.35-11.39L292.35-11.39L292.35-11.39Q290.11-9.28 288.42-6.62L288.42-6.62L288.42-6.62Q286.72-3.97 286.72-2.75L286.72-2.75L286.72-2.75Q286.72-0.38 288.06-0.38L288.06-0.38L288.06-0.38Q289.41-0.38 292.16-2.56L292.16-2.56L292.16-2.56Q296.70-6.40 298.37-8.19L298.37-8.19L298.37-8.19Q304.26-14.53 304.70-14.53L304.70-14.53L304.70-14.53Q305.47-14.53 306.56-14.08L306.56-14.08L306.56-14.08Q307.65-13.63 307.26-12.99L307.26-12.99L307.26-12.99Q304-8.38 303.42-3.71L303.42-3.71L303.42-3.71Q303.36-3.14 303.36-2.24L303.36-2.24L303.36-2.24Q303.36-1.34 303.87-0.77L303.87-0.77L303.87-0.77Q304.83 0.26 306.50-0.64L306.50-0.64L306.50-0.64Q308.16-1.54 311.14-4.22L311.14-4.22L311.14-4.22Q314.11-6.91 315.90-9.47L315.90-9.47L315.90-9.47Q316.16-9.79 316.48-9.63L316.48-9.63L316.48-9.63Q316.80-9.47 316.80-9.34L316.80-9.34L316.80-9.34Q316.80-8.38 313.76-5.15L313.76-5.15L313.76-5.15Q310.72-1.92 309.12-0.77L309.12-0.77L309.12-0.77Q306.11 1.47 303.55 1.47L303.55 1.47L303.55 1.47Q301.12 1.47 300.29-0.96L300.29-0.96L300.29-0.96Q300.10-1.73 300.10-2.69L300.10-2.69L300.10-2.69Q300.10-5.57 301.31-8.77L301.31-8.77L301.31-8.77Q301.06-8.64 298.94-6.21L298.94-6.21L298.94-6.21Q296.83-3.78 294.05-1.54L294.05-1.54L294.05-1.54Q291.26 0.70 289.02 0.70ZM337.28-32.64L337.28-32.64L337.28-32.64Q338.05-34.05 338.05-34.82L338.05-34.82L338.05-34.82Q338.05-36.16 336.96-36.16L336.96-36.16L336.96-36.16Q336.06-36.16 334.72-35.14L334.72-35.14L334.72-35.14Q329.60-31.17 324.80-22.59L324.80-22.59L324.80-22.59Q320.96-15.68 319.17-10.75L319.17-10.75L319.17-10.75Q323.58-13.76 329.06-20.54L329.06-20.54L329.06-20.54Q334.53-27.33 337.28-32.64ZM318.21-8.19L318.21-8.19L318.21-8.19Q317.44-6.02 317.38-5.28L317.38-5.28L317.38-5.28Q317.31-4.54 317.31-3.30L317.31-3.30L317.31-3.30Q317.31-2.05 317.95-1.02L317.95-1.02L317.95-1.02Q319.04 0.70 321.60-0.77L321.60-0.77L321.60-0.77Q323.52-1.79 326.46-4.51L326.46-4.51L326.46-4.51Q329.41-7.23 331.01-9.47L331.01-9.47L331.01-9.47Q331.14-9.66 331.39-9.66L331.39-9.66L331.39-9.66Q331.97-9.66 331.71-8.83L331.71-8.83L331.71-8.83Q330.75-7.10 328.16-4.42L328.16-4.42L328.16-4.42Q325.57-1.73 323.46-0.16L323.46-0.16L323.46-0.16Q321.34 1.41 319.23 1.41L319.23 1.41L319.23 1.41Q314.37 1.41 314.37-3.33L314.37-3.33L314.37-3.33Q314.37-3.52 314.37-3.71L314.37-3.71L314.37-3.71Q314.62-8.19 318.91-17.25L318.91-17.25L318.91-17.25Q323.20-26.30 326.66-30.91L326.66-30.91L328.64-33.41L328.64-33.41Q329.34-34.24 330.69-35.46L330.69-35.46L330.69-35.46Q333.25-37.89 335.97-37.89L335.97-37.89L335.97-37.89Q338.69-37.89 339.65-36.22L339.65-36.22L339.65-36.22Q339.97-35.65 339.97-34.56L339.97-34.56L339.97-34.56Q339.97-33.47 339.01-31.49L339.01-31.49L339.01-31.49Q332.42-20.03 318.21-8.19ZM336.26-17.73L336.26-17.73L336.26-17.73Q337.86-17.73 338.18-16.70L338.18-16.70L338.18-16.70Q338.30-16.13 338.02-15.58L338.02-15.58L338.02-15.58Q337.73-15.04 337.60-14.72L337.60-14.72L337.60-14.72Q337.47-14.40 337.41-14.21L337.41-14.21L337.41-14.21Q337.09-13.57 336.77-12.99L336.77-12.99L336.77-12.99Q333.12-5.70 332.93-3.71L332.93-3.71L332.93-3.71Q332.86-3.14 332.86-2.24L332.86-2.24L332.86-2.24Q332.86-1.34 333.38-0.77L333.38-0.77L333.38-0.77Q334.27 0.26 335.94-0.64L335.94-0.64L335.94-0.64Q337.60-1.54 340.58-4.22L340.58-4.22L340.58-4.22Q343.55-6.91 345.41-9.47L345.41-9.47L345.41-9.47Q345.66-9.79 345.98-9.63L345.98-9.63L345.98-9.63Q346.30-9.47 346.30-9.31L346.30-9.31L346.30-9.31Q346.30-9.15 346.18-8.96L346.18-8.96L346.18-8.96Q345.22-7.23 342.72-4.54L342.72-4.54L342.72-4.54Q338.62-0.13 335.87 0.90L335.87 0.90L335.87 0.90Q334.27 1.47 333.18 1.47L333.18 1.47L333.18 1.47Q330.62 1.47 329.79-0.96L329.79-0.96L329.79-0.96Q329.66-1.41 329.66-2.05L329.66-2.05L329.66-2.05Q329.66-4.29 331.71-8.83L331.71-8.83L331.71-8.83Q331.39-8.13 329.22-5.63L329.22-5.63L329.22-5.63Q328.64-4.99 328.32-5.63L328.32-5.63L328.32-5.63Q328.26-5.76 328.26-5.98L328.26-5.98L328.26-5.98Q328.26-6.21 328.51-6.53L328.51-6.53L328.51-6.53Q331.65-10.43 333.44-13.12L333.44-13.12L333.44-13.12Q333.31-13.44 333.57-13.95L333.57-13.95L333.57-13.95Q334.85-17.54 335.81-17.73L335.81-17.73L335.81-17.73Q336-17.73 336.26-17.73ZM341.31-26.24L341.31-26.24L340.80-24.19L340.80-24.19Q340.80-23.62 339.97-22.34L339.97-22.34L339.97-22.34Q339.14-21.06 338.69-21.06L338.69-21.06L338.69-21.06Q335.94-21.06 335.94-22.40L335.94-22.40L335.94-22.40Q335.94-22.66 338.69-24.77L338.69-24.77L339.78-25.60L339.78-25.60Q340.80-26.50 341.06-26.50L341.06-26.50L341.06-26.50Q341.31-26.50 341.31-26.24ZM350.72-17.73L350.72-17.73L350.72-17.73Q352.32-17.73 352.64-16.70L352.64-16.70L352.64-16.70Q352.77-16.13 352.48-15.58L352.48-15.58L352.48-15.58Q352.19-15.04 352.06-14.72L352.06-14.72L352.06-14.72Q351.94-14.40 351.87-14.21L351.87-14.21L351.87-14.21Q351.55-13.57 351.23-12.99L351.23-12.99L351.23-12.99Q347.58-5.70 347.39-3.71L347.39-3.71L347.39-3.71Q347.33-3.14 347.33-2.24L347.33-2.24L347.33-2.24Q347.33-1.34 347.84-0.77L347.84-0.77L347.84-0.77Q348.74 0.26 350.40-0.64L350.40-0.64L350.40-0.64Q352.06-1.54 355.04-4.22L355.04-4.22L355.04-4.22Q358.02-6.91 359.87-9.47L359.87-9.47L359.87-9.47Q360.13-9.79 360.45-9.63L360.45-9.63L360.45-9.63Q360.77-9.47 360.77-9.31L360.77-9.31L360.77-9.31Q360.77-9.15 360.64-8.96L360.64-8.96L360.64-8.96Q359.68-7.23 357.18-4.54L357.18-4.54L357.18-4.54Q353.09-0.13 350.34 0.90L350.34 0.90L350.34 0.90Q348.74 1.47 347.65 1.47L347.65 1.47L347.65 1.47Q345.09 1.47 344.26-0.96L344.26-0.96L344.26-0.96Q344.13-1.41 344.13-2.05L344.13-2.05L344.13-2.05Q344.13-4.29 346.18-8.83L346.18-8.83L346.18-8.83Q345.86-8.13 343.68-5.63L343.68-5.63L343.68-5.63Q343.10-4.99 342.78-5.63L342.78-5.63L342.78-5.63Q342.72-5.76 342.72-5.98L342.72-5.98L342.72-5.98Q342.72-6.21 342.98-6.53L342.98-6.53L342.98-6.53Q346.11-10.43 347.90-13.12L347.90-13.12L347.90-13.12Q347.78-13.44 348.03-13.95L348.03-13.95L348.03-13.95Q349.31-17.54 350.27-17.73L350.27-17.73L350.27-17.73Q350.46-17.73 350.72-17.73ZM355.78-26.24L355.78-26.24L355.26-24.19L355.26-24.19Q355.26-23.62 354.43-22.34L354.43-22.34L354.43-22.34Q353.60-21.06 353.15-21.06L353.15-21.06L353.15-21.06Q350.40-21.06 350.40-22.40L350.40-22.40L350.40-22.40Q350.40-22.66 353.15-24.77L353.15-24.77L354.24-25.60L354.24-25.60Q355.26-26.50 355.52-26.50L355.52-26.50L355.52-26.50Q355.78-26.50 355.78-26.24ZM362.24 0.70L362.24 0.70L362.24 0.70Q361.22 0.70 360.03 0.10L360.03 0.10L360.03 0.10Q358.85-0.51 358.02-1.63L358.02-1.63L358.02-1.63Q357.18-2.75 357.18-4.03L357.18-4.03L357.18-4.03Q357.18-5.31 357.76-6.46L357.76-6.46L357.76-6.46Q359.04-9.15 361.89-11.68L361.89-11.68L361.89-11.68Q364.74-14.21 367.81-16L367.81-16L367.81-16Q370.88-17.79 372.67-18.24L372.67-18.24L372.67-18.24Q374.46-18.69 376.16-18.69L376.16-18.69L376.16-18.69Q377.86-18.69 379.07-17.82L379.07-17.82L379.07-17.82Q380.29-16.96 380.29-16L380.29-16L380.29-16Q380.29-15.68 380.22-15.62L380.22-15.62L380.22-15.62Q380.16-15.55 379.90-15.68L379.90-15.68L379.90-15.68Q379.14-16.90 376.74-16.90L376.74-16.90L376.74-16.90Q374.34-16.90 371.30-15.33L371.30-15.33L371.30-15.33Q368.26-13.76 365.57-11.39L365.57-11.39L365.57-11.39Q363.33-9.28 361.63-6.62L361.63-6.62L361.63-6.62Q359.94-3.97 359.94-2.75L359.94-2.75L359.94-2.75Q359.94-0.38 361.28-0.38L361.28-0.38L361.28-0.38Q362.62-0.38 365.38-2.56L365.38-2.56L365.38-2.56Q369.92-6.40 371.58-8.19L371.58-8.19L371.58-8.19Q377.47-14.53 377.92-14.53L377.92-14.53L377.92-14.53Q378.69-14.53 379.78-14.08L379.78-14.08L379.78-14.08Q380.86-13.63 380.48-12.99L380.48-12.99L380.48-12.99Q377.22-8.38 376.64-3.71L376.64-3.71L376.64-3.71Q376.58-3.14 376.58-2.24L376.58-2.24L376.58-2.24Q376.58-1.34 377.09-0.77L377.09-0.77L377.09-0.77Q378.05 0.26 379.71-0.64L379.71-0.64L379.71-0.64Q381.38-1.54 384.35-4.22L384.35-4.22L384.35-4.22Q387.33-6.91 389.12-9.47L389.12-9.47L389.12-9.47Q389.38-9.79 389.70-9.63L389.70-9.63L389.70-9.63Q390.02-9.47 390.02-9.34L390.02-9.34L390.02-9.34Q390.02-8.38 386.98-5.15L386.98-5.15L386.98-5.15Q383.94-1.92 382.34-0.77L382.34-0.77L382.34-0.77Q379.33 1.47 376.77 1.47L376.77 1.47L376.77 1.47Q374.34 1.47 373.50-0.96L373.50-0.96L373.50-0.96Q373.31-1.73 373.31-2.69L373.31-2.69L373.31-2.69Q373.31-5.57 374.53-8.77L374.53-8.77L374.53-8.77Q374.27-8.64 372.16-6.21L372.16-6.21L372.16-6.21Q370.05-3.78 367.26-1.54L367.26-1.54L367.26-1.54Q364.48 0.70 362.24 0.70Z" fill="url(#editing-outline-gradient)"></path></g></g><style>text {
  font-size: 64px;
  font-family: Arial Black;
  dominant-baseline: central;
  text-anchor: middle;
}</style></svg>